<svg width="32" height="32" viewBox="0 0 32 32" fill="none" xmlns="http://www.w3.org/2000/svg">
<g clip-path="url(#clip0_8_45264)">
<rect width="32" height="32" fill="black"/>
<g opacity="0.5" filter="url(#filter0_f_8_45264)">
<path d="M30.1919 -60.4878L30.2335 -60.4158L30.4709 -60.0788C37.7722 -49.9891 32.2197 -40.5489 25.7207 -29.5121C16.4229 -13.7511 37.2606 -12.7727 43.0013 -3.12606C49.2229 7.32901 49.8765 19.9968 40.8968 30.4916C35.7938 36.474 26.8016 40.5616 19.5145 38.8583C-9.56193 32.0457 7.39825 4.99034 9.07297 -1.75502C12.1979 -14.2761 -2.52396 -13.307 -7.46777 -22.1417C-10.2279 -27.0706 -10.9927 -34.8917 -8.08164 -41.1508C-5.61017 -46.442 -4.08211 -49.9584 0.0330802 -54.6505C7.61515 -63.3544 23.1202 -69.834 30.1919 -60.4878Z" fill="url(#paint0_linear_8_45264)"/>
</g>
<g style="mix-blend-mode:darken" filter="url(#filter1_f_8_45264)">
<path d="M20.1803 -71.1305L20.23 -71.0445L20.5048 -70.6367C28.9253 -58.4044 24.5583 -48.4331 19.4453 -36.7765C12.1269 -20.1323 32.8483 -16.5507 39.6728 -5.00302C47.0691 7.5123 49.2229 21.857 41.5924 32.6081C37.2584 38.7385 28.853 42.272 21.4447 39.4865C-8.11764 28.3537 5.43341 -0.09885 6.28669 -7.49646C7.88664 -21.2263 -6.5554 -21.8869 -12.4953 -32.4251C-15.8112 -38.3048 -17.4981 -47.2042 -15.3645 -53.907C-13.5503 -59.5721 -12.4578 -63.3506 -8.94692 -68.1453C-2.48534 -77.0457 12.0754 -82.4982 20.1803 -71.1305Z" fill="url(#paint1_linear_8_45264)"/>
</g>
<g style="mix-blend-mode:hard-light" opacity="0.6" filter="url(#filter2_f_8_45264)">
<path d="M13.3609 0.106177C12.7318 3.94404 10.4109 7.25586 8.94297 10.857C7.47506 14.4581 7.07998 19.0692 9.83619 21.8361C12.2427 24.2335 16.3551 24.2204 19.2841 22.4901C22.213 20.7598 24.1148 17.6922 25.3202 14.5221C27.5768 8.65611 27.8752 2.2191 26.1707 -3.82767C24.4663 -9.87445 20.8505 -15.2065 15.8633 -19.0277C14.0087 -20.445 11.8463 -21.6829 9.513 -21.6578C7.17968 -21.6327 4.72092 -19.9209 4.65562 -17.5857C4.49291 -14.0064 8.29701 -12.5098 10.2742 -10.2493C11.5053 -8.84826 12.4186 -7.19742 12.9513 -5.40999C13.4841 -3.62256 13.6238 -1.74083 13.3609 0.106177Z" fill="url(#paint2_linear_8_45264)"/>
</g>
<path d="M12.6383 20.78H12.5383C12.4316 21.4867 12.0716 22.0733 11.4583 22.54C10.8449 23.0067 10.0116 23.24 8.95828 23.24C8.15828 23.24 7.41161 23.0867 6.71828 22.78C6.02495 22.4733 5.41828 22.02 4.89828 21.42C4.37828 20.82 3.97161 20.0733 3.67828 19.18C3.38495 18.2867 3.23828 17.2533 3.23828 16.08C3.23828 14.9067 3.39161 13.8667 3.69828 12.96C4.00495 12.0533 4.43161 11.2933 4.97828 10.68C5.53828 10.0667 6.20495 9.6 6.97828 9.28C7.75161 8.96 8.61161 8.8 9.55828 8.8C10.8116 8.8 11.8916 9.07333 12.7983 9.62C13.7049 10.1533 14.4183 10.96 14.9383 12.04L12.4583 13.46C12.2449 12.9133 11.9116 12.4533 11.4583 12.08C11.0049 11.6933 10.3716 11.5 9.55828 11.5C8.61161 11.5 7.85828 11.7733 7.29828 12.32C6.73828 12.8667 6.45828 13.7267 6.45828 14.9V17.14C6.45828 18.3 6.73828 19.16 7.29828 19.72C7.85828 20.2667 8.61161 20.54 9.55828 20.54C9.93162 20.54 10.2849 20.5 10.6183 20.42C10.9516 20.3267 11.2449 20.1933 11.4983 20.02C11.7516 19.8333 11.9449 19.6133 12.0783 19.36C12.2249 19.1067 12.2983 18.8067 12.2983 18.46V17.76H9.69828V15.22H15.1983V23H12.6383V20.78ZM27.9733 23H17.3933V20.3L24.2733 11.74H17.7333V9.04H27.8133V11.74L20.9133 20.3H27.9733V23Z" fill="url(#paint3_linear_8_45264)"/>
</g>
<defs>
<filter id="filter0_f_8_45264" x="-16.9899" y="-72.1262" width="71.7098" height="118.431" filterUnits="userSpaceOnUse" color-interpolation-filters="sRGB">
<feFlood flood-opacity="0" result="BackgroundImageFix"/>
<feBlend mode="normal" in="SourceGraphic" in2="BackgroundImageFix" result="shape"/>
<feGaussianBlur stdDeviation="3.5287" result="effect1_foregroundBlur_8_45264"/>
</filter>
<filter id="filter1_f_8_45264" x="-23.3701" y="-84.6114" width="76.7973" height="132.121" filterUnits="userSpaceOnUse" color-interpolation-filters="sRGB">
<feFlood flood-opacity="0" result="BackgroundImageFix"/>
<feBlend mode="normal" in="SourceGraphic" in2="BackgroundImageFix" result="shape"/>
<feGaussianBlur stdDeviation="3.5287" result="effect1_foregroundBlur_8_45264"/>
</filter>
<filter id="filter2_f_8_45264" x="-2.40685" y="-28.7156" width="36.7263" height="59.4933" filterUnits="userSpaceOnUse" color-interpolation-filters="sRGB">
<feFlood flood-opacity="0" result="BackgroundImageFix"/>
<feBlend mode="normal" in="SourceGraphic" in2="BackgroundImageFix" result="shape"/>
<feGaussianBlur stdDeviation="3.5287" result="effect1_foregroundBlur_8_45264"/>
</filter>
<linearGradient id="paint0_linear_8_45264" x1="-9.42905" y1="5.0254" x2="24.9063" y2="-14.7981" gradientUnits="userSpaceOnUse">
<stop stop-color="#B1BBC7"/>
<stop offset="1" stop-color="#112C4D"/>
</linearGradient>
<linearGradient id="paint1_linear_8_45264" x1="-11.2017" y1="-2.06187" x2="42.3639" y2="-32.988" gradientUnits="userSpaceOnUse">
<stop stop-color="#585651"/>
<stop offset="1"/>
</linearGradient>
<linearGradient id="paint2_linear_8_45264" x1="15.1115" y1="23.733" x2="15.8385" y2="-2.93116" gradientUnits="userSpaceOnUse">
<stop stop-color="#B1BBC7"/>
<stop offset="1" stop-color="#112C4D"/>
</linearGradient>
<linearGradient id="paint3_linear_8_45264" x1="10" y1="4" x2="24" y2="25.5" gradientUnits="userSpaceOnUse">
<stop offset="0.293998" stop-color="#FFC894"/>
<stop offset="1" stop-color="#766656"/>
</linearGradient>
<clipPath id="clip0_8_45264">
<rect width="32" height="32" fill="white"/>
</clipPath>
</defs>
</svg>
